
<svg xmlns:rdf="http://www.w3.org/1999/02/22-rdf-syntax-ns#" xmlns="http://www.w3.org/2000/svg" height="29.8673" width="112.155" version="1.1" xmlns:cc="http://creativecommons.org/ns#" xmlns:dc="http://purl.org/dc/elements/1.1/">
 <metadata>
  <rdf:RDF>
   <cc:Work rdf:about="">
    <dc:format>image/svg+xml</dc:format>
    <dc:type rdf:resource="http://purl.org/dc/dcmitype/StillImage"/>
    <dc:title/>
   </cc:Work>
  </rdf:RDF>
 </metadata>
 <g fill-rule="nonzero" transform="translate(-335.35115,-643.1428)" fill="#231f20">
  <path d="m437.301,650.755-4.88781,6.18719-0.60234,0,2.5714-6.18656"/>
  <path d="m343.414,665.75c-1.64613,0-3.09999-0.40891-4.16993-0.95391l-1.06995,0.95391h-0.49376l-0.32899-6.0511,0.57556-0.0542c1.72852,3.92516,3.75855,5.17813,5.65186,5.17813,1.9751,0,3.12744-1.28047,3.12744-2.99735,0-1.63578-0.63111-2.42609-3.20984-3.48875-0.87769-0.35468-1.89271-0.70921-2.74353-1.11828-1.92016-0.95328-2.93518-2.45297-2.93518-4.44265,0-3.24407,2.82532-5.20625,5.59632-5.20625,1.37206,0,2.30468,0.3814,3.20984,0.89953l1.06994-0.92641h0.46631l0.46692,5.34235-0.54872,0.0819c-1.50939-2.99875-3.12804-4.47031-4.91087-4.47031-1.56374,0-2.6062,1.03515-2.6062,2.64344,0,1.28109,0.54809,2.26265,2.49632,3.10796,0.9601,0.43579,2.08497,0.81719,3.09999,1.30797,2.22228,1.06328,3.26476,2.4536,3.26476,4.47016,0,3.59812-3.04504,5.72391-6.00829,5.72391"/>
  <path d="m357.817,665.776c-4.16992,0-6.22742-2.97062-6.22742-6.59547,0-3.35265,2.35963-6.56922,6.58447-6.56922,4.17053,0,6.17249,2.94375,6.17249,6.54172,0,3.38016-2.30469,6.62297-6.52954,6.62297zm0.10986-12.4011c-1.92017,0-3.09997,2.12578-3.09997,5.86,0,3.67968,1.2616,5.7775,3.20983,5.7775,2.00257,0,3.09999-2.12516,3.09999-5.85938,0-3.67984-1.17982-5.77812-3.20985-5.77812"/>
  <path d="m370.301,665.667c-2.16736,0-2.85278-1.06203-2.85278-3.02437v-8.15063h-2.03125v-0.3814l2.52503-1.98985,2.00256-2.58969h0.41138v3.54375h4.16992v1.41719h-4.16992v7.06c0,1.09063,0.16479,1.745,0.71411,2.12578,0.4657,0.32719,1.0974,0.43641,2.00195,0.43641,0.43884,0,0.98755-0.0275,1.50878-0.0542l0.0275,0.3814c-1.06994,0.65375-2.82592,1.22563-4.30725,1.22563"/>
  <path d="m383.113,654.683c-1.04248,0-1.83898,0.19093-2.854,0.68171v9.02219l1.53625,0.57188v0.38156h-6.19995v-0.38156l1.72912-0.57188v-16.4636l-1.89269-1.22672v-0.27297l4.71863-1.28109,0.10864,0.0819v9.54031l0.11047,0.0544c1.61865-1.52656,3.09998-2.20766,4.5813-2.20766,2.46948,0,3.51196,1.8536,3.51196,3.78907v7.9864l1.72791,0.57188v0.38156h-6.19995v-0.38156l1.53625-0.57188v-6.86953c0-1.77109-0.71289-2.83437-2.41394-2.83437"/>
  <path d="m394.254,658.254c0,3.46204,0.9875,5.72454,4.0875,5.72454,1.37203,0,2.4975-0.27282,4.1425-0.87219l0.16469,0.32719c-1.67359,1.44343-3.53875,2.34312-5.29469,2.34312-3.75859,0-6.2287-2.56172-6.2287-6.35016,0-3.89765,2.96323-6.81453,6.31105-6.81453,3.62125,0,5.37781,2.42547,5.34968,5.64203h-8.53203zm5.45953-0.9264c-0.10984-2.56235-0.85078-3.95203-2.46937-3.95203-1.59125,0-2.82547,1.66187-2.96266,4.19734l5.43203-0.24531"/>
  <path d="m410.084,665.776c-1.4264,0-3.31906-0.32656-4.63625-0.70859v-17.1442l-1.92015-1.22672v-0.27297l4.74609-1.28109,0.10984,0.0819v9.13141l0.10938,0.055c0.96062-0.95406,2.27719-1.79938,3.97828-1.79938,2.60609,0,4.96516,2.37188,4.96516,6.26953,0,3.89766-2.96266,6.89516-7.35235,6.89516zm0.4675-11.2567c-0.8239,0-1.51,0.1636-2.16797,0.43641v8.64078c0.85032,0.87219,1.94766,1.25297,2.99016,1.25297,1.61875,0,2.96266-1.44406,2.96266-5.2875,0-3.37953-1.45391-5.04266-3.78485-5.04266"/>
  <path d="m424.954,666.185c-1.3714,3.35265-2.65984,4.82484-4.36156,4.82484-1.45375,0-2.13984-0.84469-2.13984-1.7175,0-0.84469,0.76781-1.55344,1.64609-1.55344,0.93266,0,1.48141,0.49016,2.13984,1.30813,0.52125-0.57266,1.15172-1.55344,1.50891-2.31703l0.46625-1.03578-4.85594-11.6381-1.67359-0.65422v-0.35406h6.695v0.35406l-1.75672,0.65422,2.96266,7.98641h0.13734l2.68859-7.79532-1.59109-0.84531v-0.35406h4.71922v0.35406l-1.78406,0.89953-4.8011,11.8836"/>
  <path d="m440.595,665.776c-1.50875,0-2.79735-0.24531-4.06016-0.73547l-0.0273-3.5975,0.5486-0.0548c1.4814,2.58969,2.60687,3.57047,4.06015,3.57047,1.29031,0,2.085-0.81719,2.085-2.07141,0-1.41734-1.45328-1.96234-3.01703-2.58921-1.72907-0.7361-3.56625-1.55329-3.56625-3.81594,0-2.15328,1.91953-3.87078,4.71859-3.87078,1.07,0,2.57875,0.21843,3.31844,0.49078l0.0825,3.24328-0.52125,0.13672c-1.34344-2.20813-2.2211-3.05297-3.48328-3.05297-1.15297,0-1.86532,0.76297-1.86532,1.74437,0,1.41797,1.48141,1.98985,3.045,2.61672,1.72735,0.7086,3.59375,1.52641,3.59375,3.84328,0,2.53547-2.24968,4.1425-4.9114,4.1425"/>
 </g>
</svg>