<svg viewBox="0 0 355.95 95.5" xmlns="http://www.w3.org/2000/svg"><g fill="#fff"><path d="m17.86 69.8c2.38.09 4.58.41 6.63.86v-25.98c-7.08.07-9.68.92-11.76 4.01-.43-.17-.68-.25-1-.37.66-7.34 4.88-13.54 12.75-13.54 0 0 0-2.76 0-3.28 0-10.19 6.3-13.95 7.63-14.77 1.33-.81 24.22-14.21 24.22-14.21s8.83 5.69 12.62 8.08c2.4 1.51 3.36 2.4 5.87 1.14.65-.33 1.72-1.08 2.41-1.6v-10.14h-77.23v58.1c0 4.41 2.56 9.22 6.37 13.87 2.89-1.41 6.61-2.35 11.49-2.16z"/><path d="m39.18 21.38c0-1.17.21-2.98.49-4.25l-5.97 3.51s0 39.99 0 43.73-2.3 7.09-3.04 8.24c3.68 1.34 7.27 3.8 8.53 4.78 0 0-.01-54.84-.01-56.01z"/><path d="m70.68 19.59c-2.36 2.44-6.24 2.44-9.66.36-1.57-.95-6.01-3.84-9.5-6.13v20.97h18.01s-2.4 11.1-2.4 11.1-3.04-1.2-6.83-1.2c-2.34 0-6.18 0-8.78 0v17.07c0 5.32-.39 7.68-1.98 9.67-1.38 1.72-21.62 14.53-21.62 14.53s-8.51-8.99-17.76-9.8c10.42 10.56 25.5 19.35 28.34 19.35.04 0 .08-.02.12-.04.04.01.08.04.12.04 4.42 0 38.5-21.86 38.5-37.41v-45.18c-2.14 2.17-5.41 5.5-6.55 6.67z"/><path d="m98 71.59v-9.9h4.45v9.21c0 2.04 1.04 2.99 3.25 2.99s3.27-.95 3.27-2.99v-9.21h4.24v9.9c0 3.92-2.74 6.15-7.63 6.15s-7.59-2.23-7.59-6.15zm45.29-9.9v15.77h-4.06l-7.35-10.18v10.18h-4.24v-15.77h5.06l6.36 8.81v-8.81h4.24zm14.59 0h4.45v15.77h-4.45zm34.84 0-6.38 15.77h-4.59l-6.4-15.77h4.8l4.01 10.83 3.99-10.83zm17.51 3.66v2.5h8.58v3.39h-8.58v2.55h10.09v3.67h-14.54v-15.77h14.54v3.66zm35.05 12.11-3.57-5.45h-2.85v5.45h-4.45v-15.77h9.39c3.87 0 5.89 1.79 5.89 5.17 0 2.46-1.07 4.06-3.11 4.76l3.87 5.85h-5.17zm-6.43-9.07h4.34c1.35 0 1.97-.49 1.97-1.53s-.63-1.53-1.97-1.53h-4.34zm23.75 7.19 1.53-3.32c1.83 1.25 4.04 1.9 6.5 1.9 2.18 0 3.22-.44 3.22-1.34 0-.81-.6-1.07-3.41-1.32-5.38-.51-7.12-1.74-7.12-5.03s2.71-5.06 7.33-5.06c2.74 0 5.08.65 6.94 1.88l-1.46 3.18c-1.48-1-3.25-1.48-5.2-1.48s-3.09.44-3.09 1.32c0 .84.6 1.09 3.39 1.35 5.38.49 7.14 1.74 7.14 5.01s-2.6 5.08-7.61 5.08c-3.34 0-6.08-.74-8.17-2.16zm29.47-13.89h4.45v15.77h-4.45zm33.19 3.78h-5.59v11.99h-4.45v-11.99h-5.59v-3.78h15.63zm23.38 5.03v6.96h-4.48v-6.94l-6.43-8.84h5.47l3.32 4.75 3.32-4.75h5.22l-6.43 8.81zm-229.63-44.45c-1.38-.76-3.3-.98-6.97-.98h-7.1v7.95h5.76c2.5 0 4.24-.13 5.22-.49v6.38c-.98-.4-2.72-.49-5.22-.49h-5.76v6.79c0 3.66.18 5.58.98 6.96h-8.97c.8-1.83.98-4.69.98-9.2v-15.05c0-4.51-.18-7.37-.98-9.15h22.06zm7.37 9.38c0-10.45 7.05-17.37 16.92-17.37s17.01 6.92 17.01 17.37-7.05 17.42-17.01 17.42-16.92-6.92-16.92-17.42zm26.7 0c0-6.7-4.02-10.85-9.73-10.85s-9.69 4.15-9.69 10.85 3.93 10.9 9.69 10.9 9.73-4.15 9.73-10.9zm17.58 7.55v-15.05c0-4.51-.18-7.37-.98-9.15h14.82c7.28 0 12.24 2.8 12.24 9.9 0 4.47-2.19 8.16-5.81 9.86l3.8 8.95c1.38 3.13 2.14 4.33 3.08 4.69h-9.33c.54-.8.32-1.27-.34-3.15s-3.63-10.47-3.63-10.47h-6.88v6.65c0 3.66.22 5.58.98 6.96h-8.93c.8-1.83.98-4.69.98-9.2zm14.18-10.04c3.88 0 4.94-1.3 4.94-4.1s-1.01-3.95-4.94-3.95h-7.21v8.05zm50.41 2.49c0 10.32-5.63 16.75-16.34 16.75h-12.1c.8-1.83.98-4.69.98-9.2v-15.05c0-4.51-.18-7.37-.98-9.15h12.1c10.72 0 16.34 5.58 16.34 16.66zm-7.01 0c0-6.97-3.44-10.4-9.33-10.4h-4.11v20.9h4.11c5.9 0 9.33-3.48 9.33-10.49zm44.92 7.55c0 4.51.18 7.41 1.03 9.2h-8.98c.76-1.38.98-3.3.98-6.96v-6.86h-13.53v6.86c0 3.66.22 5.58.98 6.96h-8.97c.8-1.38.98-3.3.98-6.96v-17.28c0-4.51-.18-7.37-.98-9.15h8.97c-.76 1.38-.98 3.3-.98 6.96v7.2h13.53v-7.2c0-3.66-.22-5.58-.98-6.96h8.98c-.85 1.79-1.03 4.64-1.03 9.15v15.05zm31.13 9.2c.63-.8.63-1.74-.04-4.2l-.67-2.37h-11.12l-.71 2.55c-.62 2.32-.62 3.26-.04 4.02h-9.29c.85-.49 1.21-1.61 1.88-3.66l9.56-29.74h8.35l9.55 29.78c.67 2.05 1.03 3.17 1.88 3.62h-9.33zm-2.23-11.97-3.97-13.93h-.13l-3.97 13.93h8.08zm52.9 2.77c0 4.51.18 7.41.98 9.2h-8.97c.76-1.38.98-3.31.98-6.97l.05-14.16h-.13l-8.66 14.44h-.58l-8.71-14.44h-.13l.05 14.16c0 3.66.22 5.58.98 6.97h-8.97c.71-1.52.98-3.75.98-7.28v-16.97c0-4.51-.18-7.37-.98-9.15h7.37l9.6 15.12h.18l9.64-15.12h7.32c-.8 1.79-.98 4.64-.98 9.15v15.05z"/></g></svg>