<?xml version="1.0" encoding="UTF-8"?>
<svg id="Layer_1" data-name="Layer 1" xmlns="http://www.w3.org/2000/svg" viewBox="0 0 216 216">
  <defs>
    <style>
      .cls-1 {
        fill: #90182b;
      }
    </style>
  </defs>
  <path class="cls-1" d="M188.32,149.18c.16-.13.33-.25.47-.41.75-.79,1.14-1.83,1.08-2.92l-1.45-29.28s-.07,0-.1.02c-1.23.21-2.48.34-3.76.35-.05,0-.1,0-.16,0-.98,0-1.94-.08-2.89-.2-.38-.05-.75-.11-1.13-.17l-1.45,29.28c-.05,1.09.33,2.13,1.08,2.92.43.45.94.77,1.5.97.43.16.89.26,1.36.26h3.06c.88,0,1.7-.29,2.39-.82M51.79,48.49h6.53v-5.29h-5.82c-9.02,0-16.33,7.31-16.33,16.33v7.45l-24.74,101.66h26.41c2.66,5.42,8.21,9.16,14.65,9.16h119.49c9.02,0,16.33-7.31,16.33-16.33v-8.87c-.76.28-1.55.44-2.39.44h-1.37v7.61c0,6.54-5.32,11.86-11.86,11.86H51.79c-3.46,0-6.57-1.5-8.74-3.87-1.93-2.11-3.12-4.91-3.12-7.98V60.34c0-6.54,5.32-11.86,11.86-11.86M61.37,52.38h3.94v-14.18h-3.94v14.18ZM68.36,48.49h14.69v-5.29h-14.69v5.29ZM86.11,52.38h3.94v-14.18h-3.94v14.18ZM93.1,48.49h14.69v-5.29h-14.69v5.29ZM110.85,52.38h3.94v-14.18h-3.94v14.18ZM117.84,48.49h14.69v-5.29h-14.69v5.29ZM135.58,52.38h3.94v-14.18h-3.94v14.18ZM142.58,48.49h14.69v-5.29h-14.69v5.29ZM157.89,151.07h10.75v-7.86h-10.75v7.86ZM157.89,134.6h10.75v-7.86h-10.75v7.86ZM76.26,151.07h10.75v-7.86h-10.75v7.86ZM76.26,134.6h10.75v-7.86h-10.75v7.86ZM76.26,118.14h10.75v-7.86h-10.75v7.86ZM76.26,101.38h10.75v-7.86h-10.75v7.86ZM55.86,151.07h10.75v-7.86h-10.75v7.86ZM55.86,134.6h10.75v-7.86h-10.75v7.86ZM55.86,118.14h10.75v-7.86h-10.75v7.86ZM55.86,101.38h10.75v-7.86h-10.75v7.86ZM96.67,101.38h10.75v-7.86h-10.75v7.86ZM96.67,118.14h10.75v-7.86h-10.75v7.86ZM96.67,134.6h10.75v-7.86h-10.75v7.86ZM96.67,151.07h10.75v-7.86h-10.75v7.86ZM127.83,93.52h-10.75v7.86h10.75v-7.86ZM127.83,110.28h-10.75v7.86h10.75v-7.86ZM127.83,126.74h-10.75v7.86h10.75v-7.86ZM127.83,143.21h-10.75v7.86h10.75v-7.86ZM148.23,93.52h-10.75v7.86h10.75v-7.86ZM148.23,110.28h-10.75v7.86h10.75v-7.86ZM148.23,126.74h-10.75v7.86h10.75v-7.86ZM148.23,143.21h-10.75v7.86h10.75v-7.86ZM151.28,154.12h-16.85v-13.97h16.85v13.97ZM151.28,137.65h-16.85v-13.96h16.85v13.96ZM151.28,121.19h-16.85v-13.97h16.85v13.97ZM151.28,104.44h-16.85v-13.96h16.85v13.96ZM130.88,154.12h-16.85v-13.97h16.85v13.97ZM130.88,137.65h-16.85v-13.96h16.85v13.96ZM130.88,121.19h-16.85v-13.97h16.85v13.97ZM130.88,104.44h-16.85v-13.96h16.85v13.96ZM110.47,154.12h-16.85v-13.97h16.85v13.97ZM110.47,137.65h-16.85v-13.96h16.85v13.96ZM110.47,121.19h-16.85v-13.97h16.85v13.97ZM110.47,104.44h-16.85v-13.96h16.85v13.96ZM101.71,79.21h-47.38v-3.05h47.38v3.05ZM101.71,69.93h-47.38v-3.05h47.38v3.05ZM52.8,90.47h16.85v13.96h-16.85v-13.96ZM52.8,107.22h16.85v13.97h-16.85v-13.97ZM52.8,123.69h16.85v13.96h-16.85v-13.96ZM52.8,140.16h16.85v13.97h-16.85v-13.97ZM73.21,90.47h16.85v13.96h-16.85v-13.96ZM73.21,107.22h16.85v13.97h-16.85v-13.97ZM73.21,123.69h16.85v13.96h-16.85v-13.96ZM73.21,140.16h16.85v13.97h-16.85v-13.97ZM154.84,123.69h16.85v13.96h-16.85v-13.96ZM154.84,140.16h16.85v13.97h-16.85v-13.97ZM167.32,55.44h-10.05v-3.9h-14.69v3.9h-10.05v-3.9h-14.69v3.9h-10.05v-3.9h-14.69v3.9h-10.05v-3.9h-14.69v3.9h-10.05v-3.9h-6.53c-4.86,0-8.81,3.95-8.81,8.81v100.31c0,3.55,2.12,6.59,5.14,7.98,1.12.51,2.35.82,3.66.82h120.92c4.86,0,8.8-3.95,8.8-8.81v-7.74c-1.41-.28-2.69-.97-3.71-2.04-1.34-1.4-2.02-3.24-1.92-5.17l1.48-29.85c-2.03-.65-3.93-1.57-5.68-2.72v8.06h-16.85v-13.97h10.72c-.64-.89-1.22-1.81-1.73-2.79h-8.99v-13.96h6.61c1.46-10.31,9.7-18.46,20.06-19.75v-10.38c0-4.85-3.95-8.81-8.81-8.81h-5.39v3.9ZM157.89,110.28v7.86h10.75v-7.42c-.16-.15-.33-.29-.49-.44h-10.27ZM162.52,101.38c-.84-2.4-1.32-4.97-1.32-7.65,0-.07.01-.14.01-.21h-3.32v7.86h4.63ZM160.32,52.38h3.94v-14.18h-3.94v14.18ZM184.56,70.53c1.28,0,2.53.14,3.76.35v-11.35c0-9.02-7.31-16.33-16.33-16.33h-4.68v5.29h5.39c6.54,0,11.86,5.32,11.86,11.86v10.18ZM199.29,93.73c0,6.86-4.65,12.62-10.97,14.35-1.15.31-2.36.5-3.61.52-.05,0-.1,0-.15,0-.05,0-.1,0-.16,0-.11,0-.22-.01-.33-.02-.87-.02-1.73-.11-2.56-.27-4.16-.82-7.69-3.38-9.82-6.89-.64-1.05-1.16-2.18-1.53-3.38-.41-1.37-.64-2.82-.64-4.32,0-.59.04-1.16.11-1.73.06-.52.15-1.03.26-1.53,1.28-5.72,5.85-10.2,11.62-11.34.94-.18,1.9-.29,2.89-.29.05,0,.1,0,.16,0,1.3.01,2.56.2,3.76.53,6.32,1.72,10.97,7.48,10.97,14.35M204.57,93.73c0-9.78-7-17.94-16.24-19.77-1.22-.24-2.47-.37-3.76-.38-.05,0-.1,0-.16,0-.99,0-1.95.09-2.89.23-8.68,1.26-15.57,8.04-16.98,16.67-.08.5-.16,1.01-.2,1.53-.04.5-.07,1.01-.08,1.53,0,.07-.01.14-.01.21,0,2.71.55,5.29,1.52,7.65.21.52.46,1.03.71,1.53.27.52.56,1.03.87,1.53.62.99,1.33,1.92,2.12,2.79.69.76,1.42,1.48,2.22,2.13,1.85,1.51,3.97,2.68,6.28,3.46.48.16.97.3,1.46.43.51.13,1.03.24,1.56.33.17.03.34.05.52.08.95.14,1.91.23,2.89.23.05,0,.1,0,.16,0,1.11,0,2.19-.12,3.25-.3.17-.03.34-.04.51-.08.36-.07.71-.17,1.06-.26.5-.13.98-.26,1.46-.43,7.97-2.69,13.72-10.22,13.72-19.09"/>
</svg>