<?xml version="1.0" encoding="UTF-8"?>
<svg id="Layer_1" data-name="Layer 1" xmlns="http://www.w3.org/2000/svg" viewBox="0 0 216 216">
  <defs>
    <style>
      .cls-1 {
        fill: #90182b;
      }
    </style>
  </defs>
  <polygon class="cls-1" points="149.73 29.03 149.73 53.2 173.9 53.2 149.73 29.03"/>
  <path class="cls-1" d="M146.07,56.87V21.86h-38.74c.04.09.09.17.13.26,1.39,3.34.79,7.14-1.55,9.9-1.89,2.23-1.89,5.47,0,7.7,2.34,2.76,2.93,6.55,1.54,9.9-1.39,3.35-4.49,5.61-8.09,5.91-2.91.24-5.2,2.53-5.45,5.45-.26,3.12-1.99,5.86-4.62,7.44v33.93l-14.41-12.54-15.67,12.28v-33.67c-2.63-1.58-4.36-4.32-4.62-7.44-.24-2.91-2.53-5.2-5.45-5.45-3.61-.3-6.71-2.56-8.09-5.91-1.39-3.35-.79-7.14,1.55-9.9,1.89-2.23,1.89-5.47,0-7.7-2.34-2.76-2.93-6.56-1.55-9.9.04-.09.09-.17.13-.26h-4.64v188.56h142.92V56.87h-33.39ZM70.65,194.16l-10.16-10.16,2.59-2.59,7.57,7.57,14.78-14.77,2.59,2.59-17.37,17.37ZM70.65,162.64l-10.16-10.16,2.59-2.59,7.57,7.57,14.78-14.77,2.59,2.59-17.37,17.37ZM70.89,131.11l-10.16-10.16,2.59-2.59,7.57,7.57,14.78-14.78,2.59,2.59-17.37,17.37ZM156.13,190.97h-57.22v-3.67h57.22v3.67ZM156.13,179.76h-57.22v-3.66h57.22v3.66ZM156.13,159.45h-57.22v-3.67h57.22v3.67ZM156.13,148.24h-57.22v-3.66h57.22v3.66ZM156.35,127.92h-57.22v-3.67h57.22v3.67ZM156.35,116.71h-57.22v-3.66h57.22v3.66ZM156.35,93.35h-39.21v-3.67h39.21v3.67ZM156.35,84.54h-39.21v-3.66h39.21v3.66ZM156.35,75.73h-39.21v-3.67h39.21v3.67Z"/>
  <path class="cls-1" d="M78.1,67.52c-2.23-1.89-5.47-1.89-7.7,0-1.77,1.5-3.97,2.29-6.21,2.29-.44,0-.88-.07-1.32-.13v24.88l12.13-9.5,10.62,9.24v-24.59c-2.67.37-5.4-.39-7.53-2.18Z"/>
  <path class="cls-1" d="M45.39,42.09c-1.47,1.74-1.83,4.03-.96,6.13.87,2.1,2.74,3.47,5.01,3.66,4.7.39,8.4,4.09,8.8,8.79.08,1.03.44,1.95.97,2.76.46.71,1.09,1.29,1.83,1.75.28.17.54.37.86.5.32.13.65.18.97.26,1.82.43,3.68.03,5.16-1.22,3.6-3.05,8.83-3.05,12.44,0,1.47,1.25,3.34,1.64,5.16,1.22.33-.08.65-.13.97-.26.32-.13.58-.32.86-.5.74-.46,1.37-1.04,1.83-1.75.53-.81.88-1.74.97-2.76.39-4.7,4.09-8.4,8.79-8.79,2.27-.19,4.14-1.56,5.01-3.66.87-2.1.51-4.39-.96-6.13-3.05-3.6-3.05-8.83,0-12.44,1.47-1.74,1.83-4.03.96-6.13-.26-.63-.64-1.17-1.07-1.66-.99-1.13-2.36-1.87-3.94-2-4.71-.39-8.4-4.09-8.8-8.79-.19-2.27-1.56-4.14-3.66-5.01-2.1-.87-4.4-.51-6.13.96-3.6,3.05-8.83,3.05-12.44,0-1.11-.94-2.45-1.42-3.82-1.42-.77,0-1.56.15-2.31.47-2.1.87-3.47,2.74-3.66,5.01-.39,4.71-4.09,8.41-8.8,8.79-1.58.13-2.95.87-3.94,2-.43.49-.8,1.03-1.07,1.66-.87,2.1-.51,4.39.96,6.13,3.05,3.6,3.05,8.83,0,12.44ZM62.02,21.86c3.27-2.86,7.54-4.6,12.23-4.6s8.96,1.74,12.23,4.6c3.91,3.41,6.39,8.42,6.39,14.01,0,4.09-1.34,7.86-3.57,10.94-.56.77-1.16,1.5-1.83,2.18-.57.58-1.19,1.1-1.83,1.6-3.15,2.44-7.09,3.9-11.38,3.9s-8.23-1.47-11.38-3.9c-.64-.5-1.26-1.02-1.83-1.6-.67-.67-1.27-1.41-1.83-2.18-2.24-3.07-3.57-6.84-3.57-10.94,0-5.59,2.48-10.6,6.39-14.01Z"/>
  <polygon class="cls-1" points="71.48 46.63 73.07 45.05 88.85 29.27 86.26 26.67 71.48 41.45 63.91 33.88 61.32 36.47 69.9 45.05 71.48 46.63"/>
</svg>