<svg xmlns="http://www.w3.org/2000/svg" width="546" height="62" viewBox="0 0 546 62">
  <title>Fordham News</title>
  <g>
    <path d="M2,60V2.92H40.36v9.73H13.1V27.37H35.77v9H13.1V60Z" style="fill: #8e192a"/>
    <path d="M62.22,60.81A23.07,23.07,0,0,1,53,59a20.76,20.76,0,0,1-7-4.78,21.23,21.23,0,0,1-4.38-6.95,23.41,23.41,0,0,1,0-16.65A21.23,21.23,0,0,1,46,23.71a20.93,20.93,0,0,1,7-4.79,23.24,23.24,0,0,1,9.24-1.76,23,23,0,0,1,9.21,1.76,20.81,20.81,0,0,1,6.91,4.79,21.09,21.09,0,0,1,4.39,7,23.56,23.56,0,0,1,0,16.65,21.48,21.48,0,0,1-4.35,6.95A20.15,20.15,0,0,1,71.47,59,23.12,23.12,0,0,1,62.22,60.81ZM51.21,39a14.76,14.76,0,0,0,.84,5.11,12.49,12.49,0,0,0,2.34,4,10.4,10.4,0,0,0,15.67,0,12.55,12.55,0,0,0,2.34-4,15.08,15.08,0,0,0,.84-5.15,14.8,14.8,0,0,0-.84-5.06,12.55,12.55,0,0,0-2.34-4,10.28,10.28,0,0,0-7.84-3.54,9.82,9.82,0,0,0-4.34,1,10.75,10.75,0,0,0-3.49,2.65,12.47,12.47,0,0,0-2.34,4A14.8,14.8,0,0,0,51.21,39Z" style="fill: #8e192a"/>
    <path d="M114.16,27.21a21.1,21.1,0,0,0-8.76,1.89,11.06,11.06,0,0,0-5.55,5.42V60H89.08V17.88H99v9a19.54,19.54,0,0,1,2.65-3.9,20.7,20.7,0,0,1,3.3-3,15.25,15.25,0,0,1,3.57-2,9.82,9.82,0,0,1,3.5-.68h1.33a3.86,3.86,0,0,1,.84.08Z" style="fill: #8e192a"/>
    <path d="M135.55,60.81a19,19,0,0,1-8-1.69,18.75,18.75,0,0,1-6.35-4.66,21.72,21.72,0,0,1-4.14-7,24.12,24.12,0,0,1-1.49-8.57,25.13,25.13,0,0,1,1.41-8.52,22.06,22.06,0,0,1,3.9-6.91,18,18,0,0,1,6-4.67,17,17,0,0,1,7.55-1.68,16,16,0,0,1,8.4,2.25,16.16,16.16,0,0,1,5.83,5.87v-24h10.78V47.63a4,4,0,0,0,.56,2.41,2.49,2.49,0,0,0,1.93.8V60a24.83,24.83,0,0,1-4.58.56,7.47,7.47,0,0,1-4.75-1.45,5.3,5.3,0,0,1-2.09-3.77l-.24-2.66a15.23,15.23,0,0,1-6.31,6.07A17.9,17.9,0,0,1,135.55,60.81Zm2.81-9.16a10.09,10.09,0,0,0,3.14-.53,10.86,10.86,0,0,0,3-1.48,13.82,13.82,0,0,0,2.46-2.25,9.33,9.33,0,0,0,1.64-2.82v-10a11.66,11.66,0,0,0-1.81-3.25,13.21,13.21,0,0,0-2.65-2.58A14.16,14.16,0,0,0,141,27a9.12,9.12,0,0,0-3.26-.64,9.61,9.61,0,0,0-4.46,1.05,10.48,10.48,0,0,0-3.5,2.85,13.8,13.8,0,0,0-2.25,4.14,14.61,14.61,0,0,0-.8,4.83,13.29,13.29,0,0,0,.88,4.9A12.8,12.8,0,0,0,130,48a10.9,10.9,0,0,0,3.66,2.65A11.17,11.17,0,0,0,138.36,51.65Z" style="fill: #8e192a"/>
    <path d="M205.9,60H195.12V36.37c0-3.32-.61-5.77-1.85-7.36a6.23,6.23,0,0,0-5.22-2.37,8.22,8.22,0,0,0-3.06.65,11.8,11.8,0,0,0-3.05,1.81,14.89,14.89,0,0,0-2.65,2.77,10.71,10.71,0,0,0-1.77,3.54V60H166.74V1.32h10.78V25.68a16.09,16.09,0,0,1,6.31-6.31,17.75,17.75,0,0,1,8.8-2.21,13.9,13.9,0,0,1,6.67,1.4,10.6,10.6,0,0,1,4,3.74,15.19,15.19,0,0,1,2,5.31,32.37,32.37,0,0,1,.57,6.11Z" style="fill: #8e192a"/>
    <path d="M223.58,60.81a16,16,0,0,1-5.7-1A13.73,13.73,0,0,1,213.29,57a13,13,0,0,1-3-4.22,12.63,12.63,0,0,1-1.09-5.3A11.74,11.74,0,0,1,210.52,42a12.59,12.59,0,0,1,3.7-4.3,18.3,18.3,0,0,1,5.67-2.78,24.68,24.68,0,0,1,7.23-1,31.36,31.36,0,0,1,5.51.48,22.31,22.31,0,0,1,4.78,1.37V33.32A8.48,8.48,0,0,0,235,26.88c-1.58-1.5-3.93-2.25-7-2.25a18.8,18.8,0,0,0-6.6,1.21,30.26,30.26,0,0,0-6.59,3.54l-3.3-6.84a31.13,31.13,0,0,1,17.53-5.38q9.09,0,14.11,4.46t5,12.9V47.63a3.8,3.8,0,0,0,.6,2.41,2.64,2.64,0,0,0,2,.8V60a24.3,24.3,0,0,1-4.74.56,7.21,7.21,0,0,1-4.71-1.36,5.91,5.91,0,0,1-2.05-3.62L239,53.26a18.64,18.64,0,0,1-6.83,5.62A19.59,19.59,0,0,1,223.58,60.81Zm3.06-7.88a14.15,14.15,0,0,0,5.19-1,9.39,9.39,0,0,0,3.81-2.57,3.87,3.87,0,0,0,1.77-3.06V41.52a26,26,0,0,0-4.18-1.17,22.9,22.9,0,0,0-4.34-.44,11.49,11.49,0,0,0-6.83,1.89,5.67,5.67,0,0,0-2.66,4.78,5.74,5.74,0,0,0,2.09,4.54A7.59,7.59,0,0,0,226.64,52.93Z" style="fill: #8e192a"/>
    <path d="M322.08,60H311.3V36.37c0-3.37-.57-5.84-1.73-7.4a5.62,5.62,0,0,0-4.78-2.33,9,9,0,0,0-6,2.46,13.39,13.39,0,0,0-4,6.39V60H284V36.37q0-5.05-1.73-7.4a5.65,5.65,0,0,0-4.79-2.33,9.23,9.23,0,0,0-6,2.41,13.2,13.2,0,0,0-4.06,6.36V60H256.63V17.88h9.73v7.8a16,16,0,0,1,6.39-6.31A19,19,0,0,1,282,17.16c3.53,0,6.27.85,8.2,2.57a11.42,11.42,0,0,1,3.69,6.35,18.2,18.2,0,0,1,6.52-6.63,17.54,17.54,0,0,1,9-2.29,12.56,12.56,0,0,1,6.35,1.44,10.53,10.53,0,0,1,3.86,3.78,16,16,0,0,1,1.89,5.31,34.58,34.58,0,0,1,.53,6Z" style="fill: #8e192a"/>
    <path d="M356.49,23.43V60h-11.1V2.92H354l29.75,37.47V3h11.1V60h-9Z" style="fill: #8e192a"/>
    <path d="M423.05,60.81a23.23,23.23,0,0,1-9.16-1.73,20.64,20.64,0,0,1-11.46-11.61,22.32,22.32,0,0,1-1.57-8.28,23.47,23.47,0,0,1,1.53-8.49,20.73,20.73,0,0,1,4.42-7,21.17,21.17,0,0,1,7-4.79,23.56,23.56,0,0,1,9.29-1.76,23,23,0,0,1,9.2,1.76,21.31,21.31,0,0,1,6.92,4.75,20.34,20.34,0,0,1,4.34,6.91,23.07,23.07,0,0,1,1.48,8.2c0,.7,0,1.37,0,2a7.49,7.49,0,0,1-.2,1.61H412.28a12.31,12.31,0,0,0,1.21,4.42,10.8,10.8,0,0,0,5.95,5.39,11.35,11.35,0,0,0,4,.72,12.5,12.5,0,0,0,6.07-1.56,8.37,8.37,0,0,0,3.9-4.14l9.24,2.57a18.79,18.79,0,0,1-7.43,7.92A23.12,23.12,0,0,1,423.05,60.81ZM434,35.41a11.23,11.23,0,0,0-3.5-7.6,11.31,11.31,0,0,0-11.58-2.09,10.54,10.54,0,0,0-3.33,2.13,10.8,10.8,0,0,0-2.37,3.3,11.54,11.54,0,0,0-1.09,4.26Z" style="fill: #8e192a"/>
    <path d="M499.59,17.88h10.22L492.2,60h-8.85l-7.23-18.49L469,60h-8.84L442.59,17.88h10.13l12.54,32,5.15-13.67L463,18h8.69l4.42,12.94L480.62,18h8.68L482,36.21l5.06,13.67Z" style="fill: #8e192a"/>
    <path d="M528.06,60.81a32.52,32.52,0,0,1-10.38-1.69A25.23,25.23,0,0,1,509,54.3l4-6.75a34.74,34.74,0,0,0,7.52,4.14,20.08,20.08,0,0,0,7.27,1.4,9.23,9.23,0,0,0,5.07-1.2,3.9,3.9,0,0,0,1.85-3.46,3.46,3.46,0,0,0-2.17-3.3,47.78,47.78,0,0,0-7.08-2.41q-4.1-1.12-7-2.17a17.7,17.7,0,0,1-4.66-2.37,8.09,8.09,0,0,1-2.58-3.06,9.83,9.83,0,0,1-.8-4.14,13.07,13.07,0,0,1,1.24-5.78,12.76,12.76,0,0,1,3.5-4.39A16.25,16.25,0,0,1,520.46,18a21.47,21.47,0,0,1,6.55-1,28.3,28.3,0,0,1,8.89,1.36,21.66,21.66,0,0,1,7.59,4.42l-4.34,6.52a25.09,25.09,0,0,0-6.23-3.54,17.06,17.06,0,0,0-6-1.13,8.66,8.66,0,0,0-4.58,1.13,3.91,3.91,0,0,0-1.85,3.62,3.57,3.57,0,0,0,.44,1.85,3.78,3.78,0,0,0,1.41,1.28,13.23,13.23,0,0,0,2.53,1.09c1,.35,2.34.71,3.9,1.08q4.34,1.13,7.44,2.25a20.36,20.36,0,0,1,5.06,2.58,9.26,9.26,0,0,1,2.9,3.33,10.37,10.37,0,0,1,.92,4.55,11.75,11.75,0,0,1-4.58,9.77Q535.93,60.81,528.06,60.81Z" style="fill: #8e192a"/>
  </g>
</svg>
